<mxfile host="app.diagrams.net" modified="2024-05-13T17:24:40.207Z" agent="Mozilla/5.0 (Windows NT 10.0; Win64; x64) AppleWebKit/537.36 (KHTML, like Gecko) Chrome/124.0.0.0 Safari/537.36" etag="tte2eq5b4BH0XofZbp-Z" version="24.4.0" type="device" pages="4">
  <diagram id="OsTLVYnn_g9dmaDSzG_E" name="Single node">
    <mxGraphModel dx="1027" dy="921" grid="1" gridSize="10" guides="1" tooltips="1" connect="1" arrows="1" fold="1" page="1" pageScale="1" pageWidth="1654" pageHeight="2336" math="0" shadow="0">
      <root>
        <mxCell id="0" />
        <mxCell id="1" parent="0" />
        <mxCell id="uhTlLHoSNRXsqtgeUAdP-1" value="AWS Account" style="points=[[0,0],[0.25,0],[0.5,0],[0.75,0],[1,0],[1,0.25],[1,0.5],[1,0.75],[1,1],[0.75,1],[0.5,1],[0.25,1],[0,1],[0,0.75],[0,0.5],[0,0.25]];outlineConnect=0;gradientColor=none;html=1;whiteSpace=wrap;fontSize=12;fontStyle=0;container=1;pointerEvents=0;collapsible=0;recursiveResize=0;shape=mxgraph.aws4.group;grIcon=mxgraph.aws4.group_aws_cloud_alt;strokeColor=#232F3E;fillColor=none;verticalAlign=top;align=left;spacingLeft=30;fontColor=#232F3E;dashed=0;" parent="1" vertex="1">
          <mxGeometry x="210" y="80" width="740" height="310" as="geometry" />
        </mxCell>
        <mxCell id="uhTlLHoSNRXsqtgeUAdP-4" value="Default VPC" style="points=[[0,0],[0.25,0],[0.5,0],[0.75,0],[1,0],[1,0.25],[1,0.5],[1,0.75],[1,1],[0.75,1],[0.5,1],[0.25,1],[0,1],[0,0.75],[0,0.5],[0,0.25]];outlineConnect=0;gradientColor=none;html=1;whiteSpace=wrap;fontSize=12;fontStyle=0;container=1;pointerEvents=0;collapsible=0;recursiveResize=0;shape=mxgraph.aws4.group;grIcon=mxgraph.aws4.group_vpc;strokeColor=#248814;fillColor=none;verticalAlign=top;align=left;spacingLeft=30;fontColor=#AAB7B8;dashed=0;" parent="uhTlLHoSNRXsqtgeUAdP-1" vertex="1">
          <mxGeometry x="20" y="60" width="470" height="230" as="geometry" />
        </mxCell>
        <mxCell id="uhTlLHoSNRXsqtgeUAdP-5" value="Availability Zone" style="fillColor=none;strokeColor=#147EBA;dashed=1;verticalAlign=top;fontStyle=0;fontColor=#147EBA;whiteSpace=wrap;html=1;" parent="uhTlLHoSNRXsqtgeUAdP-4" vertex="1">
          <mxGeometry x="130" y="40" width="300" height="170" as="geometry" />
        </mxCell>
        <mxCell id="uhTlLHoSNRXsqtgeUAdP-6" value="Public subnet" style="points=[[0,0],[0.25,0],[0.5,0],[0.75,0],[1,0],[1,0.25],[1,0.5],[1,0.75],[1,1],[0.75,1],[0.5,1],[0.25,1],[0,1],[0,0.75],[0,0.5],[0,0.25]];outlineConnect=0;gradientColor=none;html=1;whiteSpace=wrap;fontSize=12;fontStyle=0;container=1;pointerEvents=0;collapsible=0;recursiveResize=0;shape=mxgraph.aws4.group;grIcon=mxgraph.aws4.group_security_group;grStroke=0;strokeColor=#248814;fillColor=#E9F3E6;verticalAlign=top;align=left;spacingLeft=30;fontColor=#248814;dashed=0;" parent="uhTlLHoSNRXsqtgeUAdP-4" vertex="1">
          <mxGeometry x="150" y="70" width="260" height="130" as="geometry" />
        </mxCell>
        <mxCell id="uhTlLHoSNRXsqtgeUAdP-10" value="Amazon EC2&lt;br&gt;Theta Edge Node" style="sketch=0;points=[[0,0,0],[0.25,0,0],[0.5,0,0],[0.75,0,0],[1,0,0],[0,1,0],[0.25,1,0],[0.5,1,0],[0.75,1,0],[1,1,0],[0,0.25,0],[0,0.5,0],[0,0.75,0],[1,0.25,0],[1,0.5,0],[1,0.75,0]];outlineConnect=0;fontColor=#232F3E;gradientColor=#F78E04;gradientDirection=north;fillColor=#D05C17;strokeColor=#ffffff;dashed=0;verticalLabelPosition=bottom;verticalAlign=top;align=center;html=1;fontSize=12;fontStyle=0;aspect=fixed;shape=mxgraph.aws4.resourceIcon;resIcon=mxgraph.aws4.ec2;" parent="uhTlLHoSNRXsqtgeUAdP-4" vertex="1">
          <mxGeometry x="260" y="96" width="58" height="58" as="geometry" />
        </mxCell>
        <mxCell id="G1kMGk_8-pj_el2kjxeQ-3" value="" style="edgeStyle=orthogonalEdgeStyle;rounded=0;orthogonalLoop=1;jettySize=auto;html=1;" parent="uhTlLHoSNRXsqtgeUAdP-4" source="7-vfY1zSQ_ii2rn2_tMj-1" target="uhTlLHoSNRXsqtgeUAdP-10" edge="1">
          <mxGeometry relative="1" as="geometry" />
        </mxCell>
        <mxCell id="7-vfY1zSQ_ii2rn2_tMj-1" value="Internet Gateway" style="sketch=0;outlineConnect=0;fontColor=#232F3E;gradientColor=none;fillColor=#8C4FFF;strokeColor=none;dashed=0;verticalLabelPosition=bottom;verticalAlign=top;align=center;html=1;fontSize=12;fontStyle=0;aspect=fixed;pointerEvents=1;shape=mxgraph.aws4.internet_gateway;" parent="uhTlLHoSNRXsqtgeUAdP-4" vertex="1">
          <mxGeometry x="20" y="86" width="78" height="78" as="geometry" />
        </mxCell>
        <mxCell id="G1kMGk_8-pj_el2kjxeQ-6" value="&lt;b&gt;1&lt;/b&gt;" style="ellipse;whiteSpace=wrap;html=1;aspect=fixed;fillColor=#fa6800;strokeColor=none;fontColor=#ffffff;gradientColor=none;fontSize=19;" parent="uhTlLHoSNRXsqtgeUAdP-4" vertex="1">
          <mxGeometry x="39" y="40" width="40" height="40" as="geometry" />
        </mxCell>
        <mxCell id="G1kMGk_8-pj_el2kjxeQ-7" value="&lt;b&gt;2&lt;/b&gt;" style="ellipse;whiteSpace=wrap;html=1;aspect=fixed;fillColor=#fa6800;strokeColor=none;fontColor=#ffffff;gradientColor=none;fontSize=19;" parent="uhTlLHoSNRXsqtgeUAdP-4" vertex="1">
          <mxGeometry x="380" y="70" width="40" height="40" as="geometry" />
        </mxCell>
        <mxCell id="uhTlLHoSNRXsqtgeUAdP-14" value="AWS Secrets Manager&lt;br&gt;(Edge Node Password)" style="sketch=0;points=[[0,0,0],[0.25,0,0],[0.5,0,0],[0.75,0,0],[1,0,0],[0,1,0],[0.25,1,0],[0.5,1,0],[0.75,1,0],[1,1,0],[0,0.25,0],[0,0.5,0],[0,0.75,0],[1,0.25,0],[1,0.5,0],[1,0.75,0]];outlineConnect=0;fontColor=#232F3E;gradientColor=#F54749;gradientDirection=north;fillColor=#C7131F;strokeColor=#ffffff;dashed=0;verticalLabelPosition=bottom;verticalAlign=top;align=center;html=1;fontSize=12;fontStyle=0;aspect=fixed;shape=mxgraph.aws4.resourceIcon;resIcon=mxgraph.aws4.secrets_manager;" parent="uhTlLHoSNRXsqtgeUAdP-1" vertex="1">
          <mxGeometry x="650" y="60" width="50" height="50" as="geometry" />
        </mxCell>
        <mxCell id="-6v1-0gV6pTtPKKC56o4-1" value="Amazon CloudWatch&lt;br&gt;Edge Metrics" style="sketch=0;points=[[0,0,0],[0.25,0,0],[0.5,0,0],[0.75,0,0],[1,0,0],[0,1,0],[0.25,1,0],[0.5,1,0],[0.75,1,0],[1,1,0],[0,0.25,0],[0,0.5,0],[0,0.75,0],[1,0.25,0],[1,0.5,0],[1,0.75,0]];points=[[0,0,0],[0.25,0,0],[0.5,0,0],[0.75,0,0],[1,0,0],[0,1,0],[0.25,1,0],[0.5,1,0],[0.75,1,0],[1,1,0],[0,0.25,0],[0,0.5,0],[0,0.75,0],[1,0.25,0],[1,0.5,0],[1,0.75,0]];outlineConnect=0;fontColor=#232F3E;gradientColor=#F34482;gradientDirection=north;fillColor=#BC1356;strokeColor=#ffffff;dashed=0;verticalLabelPosition=bottom;verticalAlign=top;align=center;html=1;fontSize=12;fontStyle=0;aspect=fixed;shape=mxgraph.aws4.resourceIcon;resIcon=mxgraph.aws4.cloudwatch_2;" parent="uhTlLHoSNRXsqtgeUAdP-1" vertex="1">
          <mxGeometry x="650" y="175" width="50" height="50" as="geometry" />
        </mxCell>
        <mxCell id="G1kMGk_8-pj_el2kjxeQ-5" style="edgeStyle=orthogonalEdgeStyle;rounded=0;orthogonalLoop=1;jettySize=auto;html=1;exitX=0.5;exitY=0;exitDx=0;exitDy=0;exitPerimeter=0;entryX=0;entryY=0.5;entryDx=0;entryDy=0;entryPerimeter=0;dashed=1;strokeWidth=1;startArrow=classic;startFill=1;endArrow=none;endFill=0;" parent="uhTlLHoSNRXsqtgeUAdP-1" source="uhTlLHoSNRXsqtgeUAdP-10" target="uhTlLHoSNRXsqtgeUAdP-14" edge="1">
          <mxGeometry relative="1" as="geometry" />
        </mxCell>
        <mxCell id="G1kMGk_8-pj_el2kjxeQ-8" value="&lt;b&gt;3&lt;/b&gt;" style="ellipse;whiteSpace=wrap;html=1;aspect=fixed;fillColor=#fa6800;strokeColor=none;fontColor=#ffffff;gradientColor=none;fontSize=19;" parent="uhTlLHoSNRXsqtgeUAdP-1" vertex="1">
          <mxGeometry x="450" y="30" width="40" height="40" as="geometry" />
        </mxCell>
        <mxCell id="G1kMGk_8-pj_el2kjxeQ-9" value="&lt;b&gt;4&lt;/b&gt;" style="ellipse;whiteSpace=wrap;html=1;aspect=fixed;fillColor=#fa6800;strokeColor=none;fontColor=#ffffff;gradientColor=none;fontSize=19;" parent="uhTlLHoSNRXsqtgeUAdP-1" vertex="1">
          <mxGeometry x="610" y="260" width="40" height="40" as="geometry" />
        </mxCell>
        <mxCell id="DIFYsWHPuHf26GNs4yZb-2" style="edgeStyle=orthogonalEdgeStyle;rounded=0;orthogonalLoop=1;jettySize=auto;html=1;dashed=1;" edge="1" parent="uhTlLHoSNRXsqtgeUAdP-1" source="DIFYsWHPuHf26GNs4yZb-1" target="uhTlLHoSNRXsqtgeUAdP-10">
          <mxGeometry relative="1" as="geometry" />
        </mxCell>
        <mxCell id="DIFYsWHPuHf26GNs4yZb-1" value="Amazon S3 Bucket&lt;div&gt;(Edge Node Runners&lt;/div&gt;&lt;div&gt;&amp;nbsp;launch scripts)&lt;/div&gt;" style="sketch=0;points=[[0,0,0],[0.25,0,0],[0.5,0,0],[0.75,0,0],[1,0,0],[0,1,0],[0.25,1,0],[0.5,1,0],[0.75,1,0],[1,1,0],[0,0.25,0],[0,0.5,0],[0,0.75,0],[1,0.25,0],[1,0.5,0],[1,0.75,0]];outlineConnect=0;fontColor=#232F3E;fillColor=#7AA116;strokeColor=#ffffff;dashed=0;verticalLabelPosition=bottom;verticalAlign=top;align=center;html=1;fontSize=12;fontStyle=0;aspect=fixed;shape=mxgraph.aws4.resourceIcon;resIcon=mxgraph.aws4.s3;" vertex="1" parent="uhTlLHoSNRXsqtgeUAdP-1">
          <mxGeometry x="530" y="175" width="48" height="48" as="geometry" />
        </mxCell>
        <mxCell id="G1kMGk_8-pj_el2kjxeQ-2" style="edgeStyle=orthogonalEdgeStyle;rounded=0;orthogonalLoop=1;jettySize=auto;html=1;exitX=0.875;exitY=0.5;exitDx=0;exitDy=0;exitPerimeter=0;" parent="1" source="uhTlLHoSNRXsqtgeUAdP-19" target="7-vfY1zSQ_ii2rn2_tMj-1" edge="1">
          <mxGeometry relative="1" as="geometry" />
        </mxCell>
        <mxCell id="uhTlLHoSNRXsqtgeUAdP-19" value="Theta&lt;br&gt;Blockchain&lt;br&gt;Network" style="ellipse;shape=cloud;whiteSpace=wrap;html=1;" parent="1" vertex="1">
          <mxGeometry x="40" y="225" width="120" height="80" as="geometry" />
        </mxCell>
      </root>
    </mxGraphModel>
  </diagram>
  <diagram name="HA Nodes" id="NRJ5ctCk9CnkMLK5unU4">
    <mxGraphModel dx="1120" dy="854" grid="1" gridSize="10" guides="1" tooltips="1" connect="1" arrows="1" fold="1" page="1" pageScale="1" pageWidth="1654" pageHeight="2336" math="0" shadow="0">
      <root>
        <mxCell id="0" />
        <mxCell id="1" parent="0" />
        <mxCell id="oZifH6sd_83AdmvJ35uA-1" value="AWS Account" style="points=[[0,0],[0.25,0],[0.5,0],[0.75,0],[1,0],[1,0.25],[1,0.5],[1,0.75],[1,1],[0.75,1],[0.5,1],[0.25,1],[0,1],[0,0.75],[0,0.5],[0,0.25]];outlineConnect=0;gradientColor=none;html=1;whiteSpace=wrap;fontSize=12;fontStyle=0;container=1;pointerEvents=0;collapsible=0;recursiveResize=0;shape=mxgraph.aws4.group;grIcon=mxgraph.aws4.group_aws_cloud_alt;strokeColor=#232F3E;fillColor=none;verticalAlign=top;align=left;spacingLeft=30;fontColor=#232F3E;dashed=0;" parent="1" vertex="1">
          <mxGeometry x="190" y="80" width="870" height="570" as="geometry" />
        </mxCell>
        <mxCell id="oZifH6sd_83AdmvJ35uA-14" value="Self-built and run dApps" style="rounded=0;whiteSpace=wrap;html=1;" parent="oZifH6sd_83AdmvJ35uA-1" vertex="1">
          <mxGeometry x="620" y="291" width="100" height="79" as="geometry" />
        </mxCell>
        <mxCell id="oZifH6sd_83AdmvJ35uA-15" style="edgeStyle=orthogonalEdgeStyle;rounded=0;orthogonalLoop=1;jettySize=auto;html=1;exitX=0;exitY=0.5;exitDx=0;exitDy=0;" parent="oZifH6sd_83AdmvJ35uA-1" source="oZifH6sd_83AdmvJ35uA-14" target="oZifH6sd_83AdmvJ35uA-11" edge="1">
          <mxGeometry relative="1" as="geometry" />
        </mxCell>
        <mxCell id="oZifH6sd_83AdmvJ35uA-6" value="Default VPC" style="points=[[0,0],[0.25,0],[0.5,0],[0.75,0],[1,0],[1,0.25],[1,0.5],[1,0.75],[1,1],[0.75,1],[0.5,1],[0.25,1],[0,1],[0,0.75],[0,0.5],[0,0.25]];outlineConnect=0;gradientColor=none;html=1;whiteSpace=wrap;fontSize=12;fontStyle=0;container=1;pointerEvents=0;collapsible=0;recursiveResize=0;shape=mxgraph.aws4.group;grIcon=mxgraph.aws4.group_vpc;strokeColor=#248814;fillColor=none;verticalAlign=top;align=left;spacingLeft=30;fontColor=#AAB7B8;dashed=0;" parent="oZifH6sd_83AdmvJ35uA-1" vertex="1">
          <mxGeometry x="20" y="60" width="710" height="490" as="geometry" />
        </mxCell>
        <mxCell id="oZifH6sd_83AdmvJ35uA-3" value="Availability Zone" style="fillColor=none;strokeColor=#147EBA;dashed=1;verticalAlign=top;fontStyle=0;fontColor=#147EBA;whiteSpace=wrap;html=1;" parent="oZifH6sd_83AdmvJ35uA-6" vertex="1">
          <mxGeometry x="120" y="40" width="300" height="220" as="geometry" />
        </mxCell>
        <mxCell id="oZifH6sd_83AdmvJ35uA-8" value="Public subnet" style="points=[[0,0],[0.25,0],[0.5,0],[0.75,0],[1,0],[1,0.25],[1,0.5],[1,0.75],[1,1],[0.75,1],[0.5,1],[0.25,1],[0,1],[0,0.75],[0,0.5],[0,0.25]];outlineConnect=0;gradientColor=none;html=1;whiteSpace=wrap;fontSize=12;fontStyle=0;container=1;pointerEvents=0;collapsible=0;recursiveResize=0;shape=mxgraph.aws4.group;grIcon=mxgraph.aws4.group_security_group;grStroke=0;strokeColor=#248814;fillColor=#E9F3E6;verticalAlign=top;align=left;spacingLeft=30;fontColor=#248814;dashed=0;" parent="oZifH6sd_83AdmvJ35uA-6" vertex="1">
          <mxGeometry x="140" y="70" width="260" height="180" as="geometry" />
        </mxCell>
        <mxCell id="oZifH6sd_83AdmvJ35uA-9" value="Availability Zone" style="fillColor=none;strokeColor=#147EBA;dashed=1;verticalAlign=top;fontStyle=0;fontColor=#147EBA;whiteSpace=wrap;html=1;" parent="oZifH6sd_83AdmvJ35uA-6" vertex="1">
          <mxGeometry x="120" y="280" width="300" height="190" as="geometry" />
        </mxCell>
        <mxCell id="oZifH6sd_83AdmvJ35uA-10" value="Public subnet" style="points=[[0,0],[0.25,0],[0.5,0],[0.75,0],[1,0],[1,0.25],[1,0.5],[1,0.75],[1,1],[0.75,1],[0.5,1],[0.25,1],[0,1],[0,0.75],[0,0.5],[0,0.25]];outlineConnect=0;gradientColor=none;html=1;whiteSpace=wrap;fontSize=12;fontStyle=0;container=1;pointerEvents=0;collapsible=0;recursiveResize=0;shape=mxgraph.aws4.group;grIcon=mxgraph.aws4.group_security_group;grStroke=0;strokeColor=#248814;fillColor=#E9F3E6;verticalAlign=top;align=left;spacingLeft=30;fontColor=#248814;dashed=0;" parent="oZifH6sd_83AdmvJ35uA-6" vertex="1">
          <mxGeometry x="140" y="310" width="260" height="150" as="geometry" />
        </mxCell>
        <mxCell id="oZifH6sd_83AdmvJ35uA-4" value="Auto Scaling group" style="points=[[0,0],[0.25,0],[0.5,0],[0.75,0],[1,0],[1,0.25],[1,0.5],[1,0.75],[1,1],[0.75,1],[0.5,1],[0.25,1],[0,1],[0,0.75],[0,0.5],[0,0.25]];outlineConnect=0;gradientColor=none;html=1;whiteSpace=wrap;fontSize=12;fontStyle=0;container=1;pointerEvents=0;collapsible=0;recursiveResize=0;shape=mxgraph.aws4.groupCenter;grIcon=mxgraph.aws4.group_auto_scaling_group;grStroke=1;strokeColor=#D86613;fillColor=none;verticalAlign=top;align=center;fontColor=#D86613;dashed=1;spacingTop=25;" parent="oZifH6sd_83AdmvJ35uA-6" vertex="1">
          <mxGeometry x="170" y="100" width="200" height="350" as="geometry" />
        </mxCell>
        <mxCell id="oZifH6sd_83AdmvJ35uA-13" value="Amazon EC2&lt;br&gt;Solana Node" style="sketch=0;points=[[0,0,0],[0.25,0,0],[0.5,0,0],[0.75,0,0],[1,0,0],[0,1,0],[0.25,1,0],[0.5,1,0],[0.75,1,0],[1,1,0],[0,0.25,0],[0,0.5,0],[0,0.75,0],[1,0.25,0],[1,0.5,0],[1,0.75,0]];outlineConnect=0;fontColor=#232F3E;gradientColor=#F78E04;gradientDirection=north;fillColor=#D05C17;strokeColor=#ffffff;dashed=0;verticalLabelPosition=bottom;verticalAlign=top;align=center;html=1;fontSize=12;fontStyle=0;aspect=fixed;shape=mxgraph.aws4.resourceIcon;resIcon=mxgraph.aws4.ec2;" parent="oZifH6sd_83AdmvJ35uA-4" vertex="1">
          <mxGeometry x="71" y="56" width="58" height="58" as="geometry" />
        </mxCell>
        <mxCell id="oZifH6sd_83AdmvJ35uA-12" value="Amazon EC2&lt;br&gt;Solana Node" style="sketch=0;points=[[0,0,0],[0.25,0,0],[0.5,0,0],[0.75,0,0],[1,0,0],[0,1,0],[0.25,1,0],[0.5,1,0],[0.75,1,0],[1,1,0],[0,0.25,0],[0,0.5,0],[0,0.75,0],[1,0.25,0],[1,0.5,0],[1,0.75,0]];outlineConnect=0;fontColor=#232F3E;gradientColor=#F78E04;gradientDirection=north;fillColor=#D05C17;strokeColor=#ffffff;dashed=0;verticalLabelPosition=bottom;verticalAlign=top;align=center;html=1;fontSize=12;fontStyle=0;aspect=fixed;shape=mxgraph.aws4.resourceIcon;resIcon=mxgraph.aws4.ec2;" parent="oZifH6sd_83AdmvJ35uA-6" vertex="1">
          <mxGeometry x="241" y="346" width="58" height="58" as="geometry" />
        </mxCell>
        <mxCell id="oZifH6sd_83AdmvJ35uA-25" value="" style="edgeStyle=orthogonalEdgeStyle;rounded=0;orthogonalLoop=1;jettySize=auto;html=1;" parent="oZifH6sd_83AdmvJ35uA-6" source="oZifH6sd_83AdmvJ35uA-11" target="oZifH6sd_83AdmvJ35uA-4" edge="1">
          <mxGeometry relative="1" as="geometry">
            <mxPoint x="509" y="151.9991136565077" as="targetPoint" />
            <Array as="points">
              <mxPoint x="430" y="271" />
              <mxPoint x="430" y="271" />
            </Array>
          </mxGeometry>
        </mxCell>
        <mxCell id="oZifH6sd_83AdmvJ35uA-11" value="Application Load&lt;br&gt;Balancer &lt;br&gt;for JSON RPC" style="sketch=0;outlineConnect=0;fontColor=#232F3E;gradientColor=none;fillColor=#4D27AA;strokeColor=none;dashed=0;verticalLabelPosition=bottom;verticalAlign=top;align=center;html=1;fontSize=12;fontStyle=0;aspect=fixed;pointerEvents=1;shape=mxgraph.aws4.application_load_balancer;" parent="oZifH6sd_83AdmvJ35uA-6" vertex="1">
          <mxGeometry x="470" y="232" width="78" height="78" as="geometry" />
        </mxCell>
        <mxCell id="nOD8lqia6GRk6c45FBgn-2" value="" style="edgeStyle=orthogonalEdgeStyle;rounded=0;orthogonalLoop=1;jettySize=auto;html=1;entryX=0;entryY=0.5;entryDx=0;entryDy=0;entryPerimeter=0;" parent="oZifH6sd_83AdmvJ35uA-6" source="R0HablIHEPzWSXgnfMjP-1" target="oZifH6sd_83AdmvJ35uA-12" edge="1">
          <mxGeometry relative="1" as="geometry">
            <Array as="points">
              <mxPoint x="130" y="271" />
              <mxPoint x="130" y="375" />
            </Array>
          </mxGeometry>
        </mxCell>
        <mxCell id="R0HablIHEPzWSXgnfMjP-1" value="Internet Gateway" style="sketch=0;outlineConnect=0;fontColor=#232F3E;gradientColor=none;fillColor=#8C4FFF;strokeColor=none;dashed=0;verticalLabelPosition=bottom;verticalAlign=top;align=center;html=1;fontSize=12;fontStyle=0;aspect=fixed;pointerEvents=1;shape=mxgraph.aws4.internet_gateway;" parent="oZifH6sd_83AdmvJ35uA-6" vertex="1">
          <mxGeometry x="20" y="232" width="78" height="78" as="geometry" />
        </mxCell>
        <mxCell id="nOD8lqia6GRk6c45FBgn-3" value="" style="edgeStyle=orthogonalEdgeStyle;rounded=0;orthogonalLoop=1;jettySize=auto;html=1;entryX=0;entryY=0.5;entryDx=0;entryDy=0;entryPerimeter=0;" parent="oZifH6sd_83AdmvJ35uA-6" source="R0HablIHEPzWSXgnfMjP-1" target="oZifH6sd_83AdmvJ35uA-13" edge="1">
          <mxGeometry relative="1" as="geometry">
            <mxPoint x="108" y="281" as="sourcePoint" />
            <mxPoint x="251" y="385" as="targetPoint" />
            <Array as="points">
              <mxPoint x="130" y="271" />
              <mxPoint x="130" y="185" />
            </Array>
          </mxGeometry>
        </mxCell>
        <mxCell id="6U5owluWiNJCOrJDzXMc-1" value="&lt;b&gt;1&lt;/b&gt;" style="ellipse;whiteSpace=wrap;html=1;aspect=fixed;fillColor=#fa6800;strokeColor=none;fontColor=#ffffff;gradientColor=none;fontSize=19;" parent="oZifH6sd_83AdmvJ35uA-6" vertex="1">
          <mxGeometry x="39" y="170" width="40" height="40" as="geometry" />
        </mxCell>
        <mxCell id="6U5owluWiNJCOrJDzXMc-2" value="&lt;b&gt;2&lt;/b&gt;" style="ellipse;whiteSpace=wrap;html=1;aspect=fixed;fillColor=#fa6800;strokeColor=none;fontColor=#ffffff;gradientColor=none;fontSize=19;" parent="oZifH6sd_83AdmvJ35uA-6" vertex="1">
          <mxGeometry x="430" y="210" width="40" height="40" as="geometry" />
        </mxCell>
        <mxCell id="6U5owluWiNJCOrJDzXMc-3" value="&lt;b&gt;3&lt;/b&gt;" style="ellipse;whiteSpace=wrap;html=1;aspect=fixed;fillColor=#fa6800;strokeColor=none;fontColor=#ffffff;gradientColor=none;fontSize=19;" parent="oZifH6sd_83AdmvJ35uA-6" vertex="1">
          <mxGeometry x="530" y="130" width="40" height="40" as="geometry" />
        </mxCell>
        <mxCell id="oZifH6sd_83AdmvJ35uA-26" value="AWS Secrets Manager" style="sketch=0;points=[[0,0,0],[0.25,0,0],[0.5,0,0],[0.75,0,0],[1,0,0],[0,1,0],[0.25,1,0],[0.5,1,0],[0.75,1,0],[1,1,0],[0,0.25,0],[0,0.5,0],[0,0.75,0],[1,0.25,0],[1,0.5,0],[1,0.75,0]];outlineConnect=0;fontColor=#232F3E;gradientColor=#F54749;gradientDirection=north;fillColor=#C7131F;strokeColor=#ffffff;dashed=0;verticalLabelPosition=bottom;verticalAlign=top;align=center;html=1;fontSize=12;fontStyle=0;aspect=fixed;shape=mxgraph.aws4.resourceIcon;resIcon=mxgraph.aws4.secrets_manager;" parent="oZifH6sd_83AdmvJ35uA-1" vertex="1">
          <mxGeometry x="780" y="220" width="50" height="50" as="geometry" />
        </mxCell>
        <mxCell id="oZifH6sd_83AdmvJ35uA-28" style="edgeStyle=orthogonalEdgeStyle;rounded=0;orthogonalLoop=1;jettySize=auto;html=1;exitX=1;exitY=0.5;exitDx=0;exitDy=0;exitPerimeter=0;entryX=0;entryY=0.5;entryDx=0;entryDy=0;entryPerimeter=0;dashed=1;strokeWidth=2;" parent="oZifH6sd_83AdmvJ35uA-1" source="oZifH6sd_83AdmvJ35uA-12" target="oZifH6sd_83AdmvJ35uA-26" edge="1">
          <mxGeometry relative="1" as="geometry">
            <Array as="points">
              <mxPoint x="360" y="435" />
              <mxPoint x="360" y="245" />
            </Array>
          </mxGeometry>
        </mxCell>
        <mxCell id="oZifH6sd_83AdmvJ35uA-29" style="edgeStyle=orthogonalEdgeStyle;rounded=0;orthogonalLoop=1;jettySize=auto;html=1;exitX=1;exitY=0.5;exitDx=0;exitDy=0;exitPerimeter=0;entryX=0;entryY=0.5;entryDx=0;entryDy=0;entryPerimeter=0;dashed=1;strokeWidth=2;" parent="oZifH6sd_83AdmvJ35uA-1" source="oZifH6sd_83AdmvJ35uA-13" target="oZifH6sd_83AdmvJ35uA-26" edge="1">
          <mxGeometry relative="1" as="geometry">
            <Array as="points">
              <mxPoint x="410" y="245" />
              <mxPoint x="410" y="245" />
            </Array>
          </mxGeometry>
        </mxCell>
        <mxCell id="KWwGxei-VI_4HALRaNO_-1" value="Amazon CloudWatch&lt;br&gt;Solana Metrics" style="sketch=0;points=[[0,0,0],[0.25,0,0],[0.5,0,0],[0.75,0,0],[1,0,0],[0,1,0],[0.25,1,0],[0.5,1,0],[0.75,1,0],[1,1,0],[0,0.25,0],[0,0.5,0],[0,0.75,0],[1,0.25,0],[1,0.5,0],[1,0.75,0]];points=[[0,0,0],[0.25,0,0],[0.5,0,0],[0.75,0,0],[1,0,0],[0,1,0],[0.25,1,0],[0.5,1,0],[0.75,1,0],[1,1,0],[0,0.25,0],[0,0.5,0],[0,0.75,0],[1,0.25,0],[1,0.5,0],[1,0.75,0]];outlineConnect=0;fontColor=#232F3E;gradientColor=#F34482;gradientDirection=north;fillColor=#BC1356;strokeColor=#ffffff;dashed=0;verticalLabelPosition=bottom;verticalAlign=top;align=center;html=1;fontSize=12;fontStyle=0;aspect=fixed;shape=mxgraph.aws4.resourceIcon;resIcon=mxgraph.aws4.cloudwatch_2;" parent="oZifH6sd_83AdmvJ35uA-1" vertex="1">
          <mxGeometry x="780" y="100" width="50" height="50" as="geometry" />
        </mxCell>
        <mxCell id="6U5owluWiNJCOrJDzXMc-4" value="&lt;b&gt;4&lt;/b&gt;" style="ellipse;whiteSpace=wrap;html=1;aspect=fixed;fillColor=#fa6800;strokeColor=none;fontColor=#ffffff;gradientColor=none;fontSize=19;" parent="oZifH6sd_83AdmvJ35uA-1" vertex="1">
          <mxGeometry x="785" y="30" width="40" height="40" as="geometry" />
        </mxCell>
        <mxCell id="nOD8lqia6GRk6c45FBgn-1" style="edgeStyle=orthogonalEdgeStyle;rounded=0;orthogonalLoop=1;jettySize=auto;html=1;exitX=0.875;exitY=0.5;exitDx=0;exitDy=0;exitPerimeter=0;" parent="1" source="oZifH6sd_83AdmvJ35uA-17" target="R0HablIHEPzWSXgnfMjP-1" edge="1">
          <mxGeometry relative="1" as="geometry" />
        </mxCell>
        <mxCell id="oZifH6sd_83AdmvJ35uA-17" value="Solana&lt;br&gt;Blockchain&lt;br&gt;Network" style="ellipse;shape=cloud;whiteSpace=wrap;html=1;" parent="1" vertex="1">
          <mxGeometry x="60" y="371" width="120" height="80" as="geometry" />
        </mxCell>
      </root>
    </mxGraphModel>
  </diagram>
  <diagram id="yu7jIE2QPvkl13Fg7-NQ" name="Single Node No Numbers">
    <mxGraphModel dx="1120" dy="854" grid="1" gridSize="10" guides="1" tooltips="1" connect="1" arrows="1" fold="1" page="1" pageScale="1" pageWidth="1654" pageHeight="2336" math="0" shadow="0">
      <root>
        <mxCell id="0" />
        <mxCell id="1" parent="0" />
        <mxCell id="ttE1R_KNDiPAh0JYZ-s9-1" value="AWS Account" style="points=[[0,0],[0.25,0],[0.5,0],[0.75,0],[1,0],[1,0.25],[1,0.5],[1,0.75],[1,1],[0.75,1],[0.5,1],[0.25,1],[0,1],[0,0.75],[0,0.5],[0,0.25]];outlineConnect=0;gradientColor=none;html=1;whiteSpace=wrap;fontSize=12;fontStyle=0;container=1;pointerEvents=0;collapsible=0;recursiveResize=0;shape=mxgraph.aws4.group;grIcon=mxgraph.aws4.group_aws_cloud_alt;strokeColor=#232F3E;fillColor=none;verticalAlign=top;align=left;spacingLeft=30;fontColor=#232F3E;dashed=0;" vertex="1" parent="1">
          <mxGeometry x="210" y="80" width="740" height="310" as="geometry" />
        </mxCell>
        <mxCell id="ttE1R_KNDiPAh0JYZ-s9-2" value="Default VPC" style="points=[[0,0],[0.25,0],[0.5,0],[0.75,0],[1,0],[1,0.25],[1,0.5],[1,0.75],[1,1],[0.75,1],[0.5,1],[0.25,1],[0,1],[0,0.75],[0,0.5],[0,0.25]];outlineConnect=0;gradientColor=none;html=1;whiteSpace=wrap;fontSize=12;fontStyle=0;container=1;pointerEvents=0;collapsible=0;recursiveResize=0;shape=mxgraph.aws4.group;grIcon=mxgraph.aws4.group_vpc;strokeColor=#248814;fillColor=none;verticalAlign=top;align=left;spacingLeft=30;fontColor=#AAB7B8;dashed=0;" vertex="1" parent="ttE1R_KNDiPAh0JYZ-s9-1">
          <mxGeometry x="20" y="60" width="570" height="230" as="geometry" />
        </mxCell>
        <mxCell id="ttE1R_KNDiPAh0JYZ-s9-3" value="Availability Zone" style="fillColor=none;strokeColor=#147EBA;dashed=1;verticalAlign=top;fontStyle=0;fontColor=#147EBA;whiteSpace=wrap;html=1;" vertex="1" parent="ttE1R_KNDiPAh0JYZ-s9-2">
          <mxGeometry x="130" y="40" width="300" height="170" as="geometry" />
        </mxCell>
        <mxCell id="ttE1R_KNDiPAh0JYZ-s9-4" value="Public subnet" style="points=[[0,0],[0.25,0],[0.5,0],[0.75,0],[1,0],[1,0.25],[1,0.5],[1,0.75],[1,1],[0.75,1],[0.5,1],[0.25,1],[0,1],[0,0.75],[0,0.5],[0,0.25]];outlineConnect=0;gradientColor=none;html=1;whiteSpace=wrap;fontSize=12;fontStyle=0;container=1;pointerEvents=0;collapsible=0;recursiveResize=0;shape=mxgraph.aws4.group;grIcon=mxgraph.aws4.group_security_group;grStroke=0;strokeColor=#248814;fillColor=#E9F3E6;verticalAlign=top;align=left;spacingLeft=30;fontColor=#248814;dashed=0;" vertex="1" parent="ttE1R_KNDiPAh0JYZ-s9-2">
          <mxGeometry x="150" y="70" width="260" height="130" as="geometry" />
        </mxCell>
        <mxCell id="ttE1R_KNDiPAh0JYZ-s9-5" style="edgeStyle=orthogonalEdgeStyle;rounded=0;orthogonalLoop=1;jettySize=auto;html=1;exitX=1;exitY=0.5;exitDx=0;exitDy=0;exitPerimeter=0;entryX=0;entryY=0.5;entryDx=0;entryDy=0;" edge="1" parent="ttE1R_KNDiPAh0JYZ-s9-2" source="ttE1R_KNDiPAh0JYZ-s9-6" target="ttE1R_KNDiPAh0JYZ-s9-9">
          <mxGeometry relative="1" as="geometry" />
        </mxCell>
        <mxCell id="ttE1R_KNDiPAh0JYZ-s9-6" value="Amazon EC2&lt;br&gt;Solana Node" style="sketch=0;points=[[0,0,0],[0.25,0,0],[0.5,0,0],[0.75,0,0],[1,0,0],[0,1,0],[0.25,1,0],[0.5,1,0],[0.75,1,0],[1,1,0],[0,0.25,0],[0,0.5,0],[0,0.75,0],[1,0.25,0],[1,0.5,0],[1,0.75,0]];outlineConnect=0;fontColor=#232F3E;gradientColor=#F78E04;gradientDirection=north;fillColor=#D05C17;strokeColor=#ffffff;dashed=0;verticalLabelPosition=bottom;verticalAlign=top;align=center;html=1;fontSize=12;fontStyle=0;aspect=fixed;shape=mxgraph.aws4.resourceIcon;resIcon=mxgraph.aws4.ec2;" vertex="1" parent="ttE1R_KNDiPAh0JYZ-s9-2">
          <mxGeometry x="260" y="96" width="58" height="58" as="geometry" />
        </mxCell>
        <mxCell id="ttE1R_KNDiPAh0JYZ-s9-7" value="" style="edgeStyle=orthogonalEdgeStyle;rounded=0;orthogonalLoop=1;jettySize=auto;html=1;" edge="1" parent="ttE1R_KNDiPAh0JYZ-s9-2" source="ttE1R_KNDiPAh0JYZ-s9-8" target="ttE1R_KNDiPAh0JYZ-s9-6">
          <mxGeometry relative="1" as="geometry" />
        </mxCell>
        <mxCell id="ttE1R_KNDiPAh0JYZ-s9-8" value="Internet Gateway" style="sketch=0;outlineConnect=0;fontColor=#232F3E;gradientColor=none;fillColor=#8C4FFF;strokeColor=none;dashed=0;verticalLabelPosition=bottom;verticalAlign=top;align=center;html=1;fontSize=12;fontStyle=0;aspect=fixed;pointerEvents=1;shape=mxgraph.aws4.internet_gateway;" vertex="1" parent="ttE1R_KNDiPAh0JYZ-s9-2">
          <mxGeometry x="20" y="86" width="78" height="78" as="geometry" />
        </mxCell>
        <mxCell id="ttE1R_KNDiPAh0JYZ-s9-9" value="Self-built and run dApps" style="rounded=0;whiteSpace=wrap;html=1;" vertex="1" parent="ttE1R_KNDiPAh0JYZ-s9-2">
          <mxGeometry x="460" y="86" width="100" height="79" as="geometry" />
        </mxCell>
        <mxCell id="ttE1R_KNDiPAh0JYZ-s9-12" value="AWS Secrets Manager" style="sketch=0;points=[[0,0,0],[0.25,0,0],[0.5,0,0],[0.75,0,0],[1,0,0],[0,1,0],[0.25,1,0],[0.5,1,0],[0.75,1,0],[1,1,0],[0,0.25,0],[0,0.5,0],[0,0.75,0],[1,0.25,0],[1,0.5,0],[1,0.75,0]];outlineConnect=0;fontColor=#232F3E;gradientColor=#F54749;gradientDirection=north;fillColor=#C7131F;strokeColor=#ffffff;dashed=0;verticalLabelPosition=bottom;verticalAlign=top;align=center;html=1;fontSize=12;fontStyle=0;aspect=fixed;shape=mxgraph.aws4.resourceIcon;resIcon=mxgraph.aws4.secrets_manager;" vertex="1" parent="ttE1R_KNDiPAh0JYZ-s9-1">
          <mxGeometry x="650" y="60" width="50" height="50" as="geometry" />
        </mxCell>
        <mxCell id="ttE1R_KNDiPAh0JYZ-s9-13" value="Amazon CloudWatch&lt;br&gt;Solana Metrics" style="sketch=0;points=[[0,0,0],[0.25,0,0],[0.5,0,0],[0.75,0,0],[1,0,0],[0,1,0],[0.25,1,0],[0.5,1,0],[0.75,1,0],[1,1,0],[0,0.25,0],[0,0.5,0],[0,0.75,0],[1,0.25,0],[1,0.5,0],[1,0.75,0]];points=[[0,0,0],[0.25,0,0],[0.5,0,0],[0.75,0,0],[1,0,0],[0,1,0],[0.25,1,0],[0.5,1,0],[0.75,1,0],[1,1,0],[0,0.25,0],[0,0.5,0],[0,0.75,0],[1,0.25,0],[1,0.5,0],[1,0.75,0]];outlineConnect=0;fontColor=#232F3E;gradientColor=#F34482;gradientDirection=north;fillColor=#BC1356;strokeColor=#ffffff;dashed=0;verticalLabelPosition=bottom;verticalAlign=top;align=center;html=1;fontSize=12;fontStyle=0;aspect=fixed;shape=mxgraph.aws4.resourceIcon;resIcon=mxgraph.aws4.cloudwatch_2;" vertex="1" parent="ttE1R_KNDiPAh0JYZ-s9-1">
          <mxGeometry x="650" y="175" width="50" height="50" as="geometry" />
        </mxCell>
        <mxCell id="ttE1R_KNDiPAh0JYZ-s9-14" style="edgeStyle=orthogonalEdgeStyle;rounded=0;orthogonalLoop=1;jettySize=auto;html=1;exitX=0.5;exitY=0;exitDx=0;exitDy=0;exitPerimeter=0;entryX=0;entryY=0.5;entryDx=0;entryDy=0;entryPerimeter=0;dashed=1;strokeWidth=2;" edge="1" parent="ttE1R_KNDiPAh0JYZ-s9-1" source="ttE1R_KNDiPAh0JYZ-s9-6" target="ttE1R_KNDiPAh0JYZ-s9-12">
          <mxGeometry relative="1" as="geometry" />
        </mxCell>
        <mxCell id="ttE1R_KNDiPAh0JYZ-s9-17" style="edgeStyle=orthogonalEdgeStyle;rounded=0;orthogonalLoop=1;jettySize=auto;html=1;exitX=0.875;exitY=0.5;exitDx=0;exitDy=0;exitPerimeter=0;" edge="1" parent="1" source="ttE1R_KNDiPAh0JYZ-s9-18" target="ttE1R_KNDiPAh0JYZ-s9-8">
          <mxGeometry relative="1" as="geometry" />
        </mxCell>
        <mxCell id="ttE1R_KNDiPAh0JYZ-s9-18" value="Solana&lt;br&gt;Blockchain&lt;br&gt;Network" style="ellipse;shape=cloud;whiteSpace=wrap;html=1;" vertex="1" parent="1">
          <mxGeometry x="40" y="225" width="120" height="80" as="geometry" />
        </mxCell>
      </root>
    </mxGraphModel>
  </diagram>
  <diagram id="5CxX-KEvAAoUtWNWhSCy" name="HA Nodes No Numbers">
    <mxGraphModel dx="1120" dy="854" grid="1" gridSize="10" guides="1" tooltips="1" connect="1" arrows="1" fold="1" page="1" pageScale="1" pageWidth="1654" pageHeight="2336" math="0" shadow="0">
      <root>
        <mxCell id="0" />
        <mxCell id="1" parent="0" />
        <mxCell id="cXs7DxBAb_xi0hy3EaJA-1" value="AWS Account" style="points=[[0,0],[0.25,0],[0.5,0],[0.75,0],[1,0],[1,0.25],[1,0.5],[1,0.75],[1,1],[0.75,1],[0.5,1],[0.25,1],[0,1],[0,0.75],[0,0.5],[0,0.25]];outlineConnect=0;gradientColor=none;html=1;whiteSpace=wrap;fontSize=12;fontStyle=0;container=1;pointerEvents=0;collapsible=0;recursiveResize=0;shape=mxgraph.aws4.group;grIcon=mxgraph.aws4.group_aws_cloud_alt;strokeColor=#232F3E;fillColor=none;verticalAlign=top;align=left;spacingLeft=30;fontColor=#232F3E;dashed=0;" vertex="1" parent="1">
          <mxGeometry x="190" y="80" width="870" height="570" as="geometry" />
        </mxCell>
        <mxCell id="cXs7DxBAb_xi0hy3EaJA-2" value="Self-built and run dApps" style="rounded=0;whiteSpace=wrap;html=1;" vertex="1" parent="cXs7DxBAb_xi0hy3EaJA-1">
          <mxGeometry x="620" y="291" width="100" height="79" as="geometry" />
        </mxCell>
        <mxCell id="cXs7DxBAb_xi0hy3EaJA-3" style="edgeStyle=orthogonalEdgeStyle;rounded=0;orthogonalLoop=1;jettySize=auto;html=1;exitX=0;exitY=0.5;exitDx=0;exitDy=0;" edge="1" parent="cXs7DxBAb_xi0hy3EaJA-1" source="cXs7DxBAb_xi0hy3EaJA-2" target="cXs7DxBAb_xi0hy3EaJA-13">
          <mxGeometry relative="1" as="geometry" />
        </mxCell>
        <mxCell id="cXs7DxBAb_xi0hy3EaJA-4" value="Default VPC" style="points=[[0,0],[0.25,0],[0.5,0],[0.75,0],[1,0],[1,0.25],[1,0.5],[1,0.75],[1,1],[0.75,1],[0.5,1],[0.25,1],[0,1],[0,0.75],[0,0.5],[0,0.25]];outlineConnect=0;gradientColor=none;html=1;whiteSpace=wrap;fontSize=12;fontStyle=0;container=1;pointerEvents=0;collapsible=0;recursiveResize=0;shape=mxgraph.aws4.group;grIcon=mxgraph.aws4.group_vpc;strokeColor=#248814;fillColor=none;verticalAlign=top;align=left;spacingLeft=30;fontColor=#AAB7B8;dashed=0;" vertex="1" parent="cXs7DxBAb_xi0hy3EaJA-1">
          <mxGeometry x="20" y="60" width="710" height="490" as="geometry" />
        </mxCell>
        <mxCell id="cXs7DxBAb_xi0hy3EaJA-5" value="Availability Zone" style="fillColor=none;strokeColor=#147EBA;dashed=1;verticalAlign=top;fontStyle=0;fontColor=#147EBA;whiteSpace=wrap;html=1;" vertex="1" parent="cXs7DxBAb_xi0hy3EaJA-4">
          <mxGeometry x="120" y="40" width="300" height="220" as="geometry" />
        </mxCell>
        <mxCell id="cXs7DxBAb_xi0hy3EaJA-6" value="Public subnet" style="points=[[0,0],[0.25,0],[0.5,0],[0.75,0],[1,0],[1,0.25],[1,0.5],[1,0.75],[1,1],[0.75,1],[0.5,1],[0.25,1],[0,1],[0,0.75],[0,0.5],[0,0.25]];outlineConnect=0;gradientColor=none;html=1;whiteSpace=wrap;fontSize=12;fontStyle=0;container=1;pointerEvents=0;collapsible=0;recursiveResize=0;shape=mxgraph.aws4.group;grIcon=mxgraph.aws4.group_security_group;grStroke=0;strokeColor=#248814;fillColor=#E9F3E6;verticalAlign=top;align=left;spacingLeft=30;fontColor=#248814;dashed=0;" vertex="1" parent="cXs7DxBAb_xi0hy3EaJA-4">
          <mxGeometry x="140" y="70" width="260" height="180" as="geometry" />
        </mxCell>
        <mxCell id="cXs7DxBAb_xi0hy3EaJA-7" value="Availability Zone" style="fillColor=none;strokeColor=#147EBA;dashed=1;verticalAlign=top;fontStyle=0;fontColor=#147EBA;whiteSpace=wrap;html=1;" vertex="1" parent="cXs7DxBAb_xi0hy3EaJA-4">
          <mxGeometry x="120" y="280" width="300" height="190" as="geometry" />
        </mxCell>
        <mxCell id="cXs7DxBAb_xi0hy3EaJA-8" value="Public subnet" style="points=[[0,0],[0.25,0],[0.5,0],[0.75,0],[1,0],[1,0.25],[1,0.5],[1,0.75],[1,1],[0.75,1],[0.5,1],[0.25,1],[0,1],[0,0.75],[0,0.5],[0,0.25]];outlineConnect=0;gradientColor=none;html=1;whiteSpace=wrap;fontSize=12;fontStyle=0;container=1;pointerEvents=0;collapsible=0;recursiveResize=0;shape=mxgraph.aws4.group;grIcon=mxgraph.aws4.group_security_group;grStroke=0;strokeColor=#248814;fillColor=#E9F3E6;verticalAlign=top;align=left;spacingLeft=30;fontColor=#248814;dashed=0;" vertex="1" parent="cXs7DxBAb_xi0hy3EaJA-4">
          <mxGeometry x="140" y="310" width="260" height="150" as="geometry" />
        </mxCell>
        <mxCell id="cXs7DxBAb_xi0hy3EaJA-9" value="Auto Scaling group" style="points=[[0,0],[0.25,0],[0.5,0],[0.75,0],[1,0],[1,0.25],[1,0.5],[1,0.75],[1,1],[0.75,1],[0.5,1],[0.25,1],[0,1],[0,0.75],[0,0.5],[0,0.25]];outlineConnect=0;gradientColor=none;html=1;whiteSpace=wrap;fontSize=12;fontStyle=0;container=1;pointerEvents=0;collapsible=0;recursiveResize=0;shape=mxgraph.aws4.groupCenter;grIcon=mxgraph.aws4.group_auto_scaling_group;grStroke=1;strokeColor=#D86613;fillColor=none;verticalAlign=top;align=center;fontColor=#D86613;dashed=1;spacingTop=25;" vertex="1" parent="cXs7DxBAb_xi0hy3EaJA-4">
          <mxGeometry x="170" y="100" width="200" height="350" as="geometry" />
        </mxCell>
        <mxCell id="cXs7DxBAb_xi0hy3EaJA-10" value="Amazon EC2&lt;br&gt;Solana Node" style="sketch=0;points=[[0,0,0],[0.25,0,0],[0.5,0,0],[0.75,0,0],[1,0,0],[0,1,0],[0.25,1,0],[0.5,1,0],[0.75,1,0],[1,1,0],[0,0.25,0],[0,0.5,0],[0,0.75,0],[1,0.25,0],[1,0.5,0],[1,0.75,0]];outlineConnect=0;fontColor=#232F3E;gradientColor=#F78E04;gradientDirection=north;fillColor=#D05C17;strokeColor=#ffffff;dashed=0;verticalLabelPosition=bottom;verticalAlign=top;align=center;html=1;fontSize=12;fontStyle=0;aspect=fixed;shape=mxgraph.aws4.resourceIcon;resIcon=mxgraph.aws4.ec2;" vertex="1" parent="cXs7DxBAb_xi0hy3EaJA-9">
          <mxGeometry x="71" y="56" width="58" height="58" as="geometry" />
        </mxCell>
        <mxCell id="cXs7DxBAb_xi0hy3EaJA-11" value="Amazon EC2&lt;br&gt;Solana Node" style="sketch=0;points=[[0,0,0],[0.25,0,0],[0.5,0,0],[0.75,0,0],[1,0,0],[0,1,0],[0.25,1,0],[0.5,1,0],[0.75,1,0],[1,1,0],[0,0.25,0],[0,0.5,0],[0,0.75,0],[1,0.25,0],[1,0.5,0],[1,0.75,0]];outlineConnect=0;fontColor=#232F3E;gradientColor=#F78E04;gradientDirection=north;fillColor=#D05C17;strokeColor=#ffffff;dashed=0;verticalLabelPosition=bottom;verticalAlign=top;align=center;html=1;fontSize=12;fontStyle=0;aspect=fixed;shape=mxgraph.aws4.resourceIcon;resIcon=mxgraph.aws4.ec2;" vertex="1" parent="cXs7DxBAb_xi0hy3EaJA-4">
          <mxGeometry x="241" y="346" width="58" height="58" as="geometry" />
        </mxCell>
        <mxCell id="cXs7DxBAb_xi0hy3EaJA-12" value="" style="edgeStyle=orthogonalEdgeStyle;rounded=0;orthogonalLoop=1;jettySize=auto;html=1;" edge="1" parent="cXs7DxBAb_xi0hy3EaJA-4" source="cXs7DxBAb_xi0hy3EaJA-13" target="cXs7DxBAb_xi0hy3EaJA-9">
          <mxGeometry relative="1" as="geometry">
            <mxPoint x="509" y="151.9991136565077" as="targetPoint" />
            <Array as="points">
              <mxPoint x="430" y="271" />
              <mxPoint x="430" y="271" />
            </Array>
          </mxGeometry>
        </mxCell>
        <mxCell id="cXs7DxBAb_xi0hy3EaJA-13" value="Application Load&lt;br&gt;Balancer &lt;br&gt;for JSON RPC" style="sketch=0;outlineConnect=0;fontColor=#232F3E;gradientColor=none;fillColor=#4D27AA;strokeColor=none;dashed=0;verticalLabelPosition=bottom;verticalAlign=top;align=center;html=1;fontSize=12;fontStyle=0;aspect=fixed;pointerEvents=1;shape=mxgraph.aws4.application_load_balancer;" vertex="1" parent="cXs7DxBAb_xi0hy3EaJA-4">
          <mxGeometry x="470" y="232" width="78" height="78" as="geometry" />
        </mxCell>
        <mxCell id="cXs7DxBAb_xi0hy3EaJA-14" value="" style="edgeStyle=orthogonalEdgeStyle;rounded=0;orthogonalLoop=1;jettySize=auto;html=1;entryX=0;entryY=0.5;entryDx=0;entryDy=0;entryPerimeter=0;" edge="1" parent="cXs7DxBAb_xi0hy3EaJA-4" source="cXs7DxBAb_xi0hy3EaJA-15" target="cXs7DxBAb_xi0hy3EaJA-11">
          <mxGeometry relative="1" as="geometry">
            <Array as="points">
              <mxPoint x="130" y="271" />
              <mxPoint x="130" y="375" />
            </Array>
          </mxGeometry>
        </mxCell>
        <mxCell id="cXs7DxBAb_xi0hy3EaJA-15" value="Internet Gateway" style="sketch=0;outlineConnect=0;fontColor=#232F3E;gradientColor=none;fillColor=#8C4FFF;strokeColor=none;dashed=0;verticalLabelPosition=bottom;verticalAlign=top;align=center;html=1;fontSize=12;fontStyle=0;aspect=fixed;pointerEvents=1;shape=mxgraph.aws4.internet_gateway;" vertex="1" parent="cXs7DxBAb_xi0hy3EaJA-4">
          <mxGeometry x="20" y="232" width="78" height="78" as="geometry" />
        </mxCell>
        <mxCell id="cXs7DxBAb_xi0hy3EaJA-16" value="" style="edgeStyle=orthogonalEdgeStyle;rounded=0;orthogonalLoop=1;jettySize=auto;html=1;entryX=0;entryY=0.5;entryDx=0;entryDy=0;entryPerimeter=0;" edge="1" parent="cXs7DxBAb_xi0hy3EaJA-4" source="cXs7DxBAb_xi0hy3EaJA-15" target="cXs7DxBAb_xi0hy3EaJA-10">
          <mxGeometry relative="1" as="geometry">
            <mxPoint x="108" y="281" as="sourcePoint" />
            <mxPoint x="251" y="385" as="targetPoint" />
            <Array as="points">
              <mxPoint x="130" y="271" />
              <mxPoint x="130" y="185" />
            </Array>
          </mxGeometry>
        </mxCell>
        <mxCell id="cXs7DxBAb_xi0hy3EaJA-20" value="AWS Secrets Manager" style="sketch=0;points=[[0,0,0],[0.25,0,0],[0.5,0,0],[0.75,0,0],[1,0,0],[0,1,0],[0.25,1,0],[0.5,1,0],[0.75,1,0],[1,1,0],[0,0.25,0],[0,0.5,0],[0,0.75,0],[1,0.25,0],[1,0.5,0],[1,0.75,0]];outlineConnect=0;fontColor=#232F3E;gradientColor=#F54749;gradientDirection=north;fillColor=#C7131F;strokeColor=#ffffff;dashed=0;verticalLabelPosition=bottom;verticalAlign=top;align=center;html=1;fontSize=12;fontStyle=0;aspect=fixed;shape=mxgraph.aws4.resourceIcon;resIcon=mxgraph.aws4.secrets_manager;" vertex="1" parent="cXs7DxBAb_xi0hy3EaJA-1">
          <mxGeometry x="780" y="220" width="50" height="50" as="geometry" />
        </mxCell>
        <mxCell id="cXs7DxBAb_xi0hy3EaJA-21" style="edgeStyle=orthogonalEdgeStyle;rounded=0;orthogonalLoop=1;jettySize=auto;html=1;exitX=1;exitY=0.5;exitDx=0;exitDy=0;exitPerimeter=0;entryX=0;entryY=0.5;entryDx=0;entryDy=0;entryPerimeter=0;dashed=1;strokeWidth=2;" edge="1" parent="cXs7DxBAb_xi0hy3EaJA-1" source="cXs7DxBAb_xi0hy3EaJA-11" target="cXs7DxBAb_xi0hy3EaJA-20">
          <mxGeometry relative="1" as="geometry">
            <Array as="points">
              <mxPoint x="360" y="435" />
              <mxPoint x="360" y="245" />
            </Array>
          </mxGeometry>
        </mxCell>
        <mxCell id="cXs7DxBAb_xi0hy3EaJA-22" style="edgeStyle=orthogonalEdgeStyle;rounded=0;orthogonalLoop=1;jettySize=auto;html=1;exitX=1;exitY=0.5;exitDx=0;exitDy=0;exitPerimeter=0;entryX=0;entryY=0.5;entryDx=0;entryDy=0;entryPerimeter=0;dashed=1;strokeWidth=2;" edge="1" parent="cXs7DxBAb_xi0hy3EaJA-1" source="cXs7DxBAb_xi0hy3EaJA-10" target="cXs7DxBAb_xi0hy3EaJA-20">
          <mxGeometry relative="1" as="geometry">
            <Array as="points">
              <mxPoint x="410" y="245" />
              <mxPoint x="410" y="245" />
            </Array>
          </mxGeometry>
        </mxCell>
        <mxCell id="cXs7DxBAb_xi0hy3EaJA-23" value="Amazon CloudWatch&lt;br&gt;Solana Metrics" style="sketch=0;points=[[0,0,0],[0.25,0,0],[0.5,0,0],[0.75,0,0],[1,0,0],[0,1,0],[0.25,1,0],[0.5,1,0],[0.75,1,0],[1,1,0],[0,0.25,0],[0,0.5,0],[0,0.75,0],[1,0.25,0],[1,0.5,0],[1,0.75,0]];points=[[0,0,0],[0.25,0,0],[0.5,0,0],[0.75,0,0],[1,0,0],[0,1,0],[0.25,1,0],[0.5,1,0],[0.75,1,0],[1,1,0],[0,0.25,0],[0,0.5,0],[0,0.75,0],[1,0.25,0],[1,0.5,0],[1,0.75,0]];outlineConnect=0;fontColor=#232F3E;gradientColor=#F34482;gradientDirection=north;fillColor=#BC1356;strokeColor=#ffffff;dashed=0;verticalLabelPosition=bottom;verticalAlign=top;align=center;html=1;fontSize=12;fontStyle=0;aspect=fixed;shape=mxgraph.aws4.resourceIcon;resIcon=mxgraph.aws4.cloudwatch_2;" vertex="1" parent="cXs7DxBAb_xi0hy3EaJA-1">
          <mxGeometry x="780" y="100" width="50" height="50" as="geometry" />
        </mxCell>
        <mxCell id="cXs7DxBAb_xi0hy3EaJA-25" style="edgeStyle=orthogonalEdgeStyle;rounded=0;orthogonalLoop=1;jettySize=auto;html=1;exitX=0.875;exitY=0.5;exitDx=0;exitDy=0;exitPerimeter=0;" edge="1" parent="1" source="cXs7DxBAb_xi0hy3EaJA-26" target="cXs7DxBAb_xi0hy3EaJA-15">
          <mxGeometry relative="1" as="geometry" />
        </mxCell>
        <mxCell id="cXs7DxBAb_xi0hy3EaJA-26" value="Solana&lt;br&gt;Blockchain&lt;br&gt;Network" style="ellipse;shape=cloud;whiteSpace=wrap;html=1;" vertex="1" parent="1">
          <mxGeometry x="60" y="371" width="120" height="80" as="geometry" />
        </mxCell>
      </root>
    </mxGraphModel>
  </diagram>
</mxfile>
